<?xml version="1.0" standalone="no"?>
<!DOCTYPE svg PUBLIC "-//W3C//DTD SVG 1.1//EN" "http://www.w3.org/Graphics/SVG/1.1/DTD/svg11.dtd">
<svg width="120" height="170" version="1.1" xmlns="http://www.w3.org/2000/svg">
<rect x="0" y="0" width="120" height="170" rx="10" ry="10" fill="white" stroke="black" />
<text x="5" y="20" fill="black" font-size="20" font-weight="300">8</text>
<!--<path d="M60,60 C 50 70, 40 80, 40 90 C 40 100, 50 110, 59 100 A 10 10 0 0 1 50 110 L 70 110 A 10 10 0 0 1 61 100 C 70 110, 80 100, 80 90 C 80 80, 70 70, 60 60 Z" fill="black" stroke="black" stroke-linejoin="round" />-->
<path d="M60,60 c -10 10, -20 20, -20 30 c 0 10, 10 20, 19 10 a 10 10 0 0 1 -9 10 l 20 0 a 10 10 0 0 1 -9 -10 c 9 10, 19 0, 19 -10 c 0 -10, -10 -20, -20 -30 Z" fill="black" stroke="black" stroke-linejoin="round" transform="scale(0.6) translate(-6,-30)" />
<path d="M60,60 c -10 10, -20 20, -20 30 c 0 10, 10 20, 19 10 a 10 10 0 0 1 -9 10 l 20 0 a 10 10 0 0 1 -9 -10 c 9 10, 19 0, 19 -10 c 0 -10, -10 -20, -20 -30 Z" fill="black" stroke="black" stroke-linejoin="round" transform="scale(0.6) translate(84,-30)" />
<path d="M60,60 c -10 10, -20 20, -20 30 c 0 10, 10 20, 19 10 a 10 10 0 0 1 -9 10 l 20 0 a 10 10 0 0 1 -9 -10 c 9 10, 19 0, 19 -10 c 0 -10, -10 -20, -20 -30 Z" fill="black" stroke="black" stroke-linejoin="round" transform="scale(0.6) translate(40,10)" />
<path d="M60,60 c -10 10, -20 20, -20 30 c 0 10, 10 20, 19 10 a 10 10 0 0 1 -9 10 l 20 0 a 10 10 0 0 1 -9 -10 c 9 10, 19 0, 19 -10 c 0 -10, -10 -20, -20 -30 Z" fill="black" stroke="black" stroke-linejoin="round" transform="scale(0.6) translate(-6,60)" />
<path d="M60,60 c -10 10, -20 20, -20 30 c 0 10, 10 20, 19 10 a 10 10 0 0 1 -9 10 l 20 0 a 10 10 0 0 1 -9 -10 c 9 10, 19 0, 19 -10 c 0 -10, -10 -20, -20 -30 Z" fill="black" stroke="black" stroke-linejoin="round" transform="scale(0.6) translate(84,60)" />
<path d="M60,60 c -10 10, -20 20, -20 30 c 0 10, 10 20, 19 10 a 10 10 0 0 1 -9 10 l 20 0 a 10 10 0 0 1 -9 -10 c 9 10, 19 0, 19 -10 c 0 -10, -10 -20, -20 -30 Z" fill="black" stroke="black" stroke-linejoin="round" transform="scale(0.6) rotate(180,80,135)" />
<path d="M60,60 c -10 10, -20 20, -20 30 c 0 10, 10 20, 19 10 a 10 10 0 0 1 -9 10 l 20 0 a 10 10 0 0 1 -9 -10 c 9 10, 19 0, 19 -10 c 0 -10, -10 -20, -20 -30 Z" fill="black" stroke="black" stroke-linejoin="round" transform="scale(0.6) rotate(180,58,160)" />
<path d="M60,60 c -10 10, -20 20, -20 30 c 0 10, 10 20, 19 10 a 10 10 0 0 1 -9 10 l 20 0 a 10 10 0 0 1 -9 -10 c 9 10, 19 0, 19 -10 c 0 -10, -10 -20, -20 -30 Z" fill="black" stroke="black" stroke-linejoin="round" transform="scale(0.6) rotate(180,103,160)" />
<path d="M60,60 c -10 10, -20 20, -20 30 c 0 10, 10 20, 19 10 a 10 10 0 0 1 -9 10 l 20 0 a 10 10 0 0 1 -9 -10 c 9 10, 19 0, 19 -10 c 0 -10, -10 -20, -20 -30 Z" fill="black" stroke="black" stroke-linejoin="round" transform="scale(0.35) translate(-25,5)" />
<path d="M60,60 c -10 10, -20 20, -20 30 c 0 10, 10 20, 19 10 a 10 10 0 0 1 -9 10 l 20 0 a 10 10 0 0 1 -9 -10 c 9 10, 19 0, 19 -10 c 0 -10, -10 -20, -20 -30 Z" fill="black" stroke="black" stroke-linejoin="round" transform="scale(0.35) rotate(180,184,240)" />
<text x="115" y="150" fill="black" font-size="20" font-weight="300" transform="rotate(180,115,150)">8</text>
</svg>