<?xml version="1.0" standalone="no"?>
<!DOCTYPE svg PUBLIC "-//W3C//DTD SVG 1.1//EN" "http://www.w3.org/Graphics/SVG/1.1/DTD/svg11.dtd">
<svg width="120" height="170" version="1.1" xmlns="http://www.w3.org/2000/svg">
<rect x="0" y="0" width="120" height="170" rx="10" ry="10" fill="white" stroke="black" />
<rect x="20" y="15" width="80" height="140" stroke="black" fill="none" />
<text x="8" y="20" fill="red" font-size="20" font-weight="300">J</text>
<!--<path d="M60,60 C 50 50, 40 60, 40 70 C 40 80, 50 90, 60 100 C 70 90, 80 80, 80 70 C 80 60, 70 50, 60 60" fill="red" />-->
<path d="M60,65 c -10 -10, -20 0, -20 10 c 0 10, 10 20, 20 30 c 10 -10, 20 -20, 20 -30 c 0 -10, -10 -20, -20,-10" fill="red" transform="scale(0.6) translate(-4,-33)"/>
<path d="M60,65 c -10 -10, -20 0, -20 10 c 0 10, 10 20, 20 30 c 10 -10, 20 -20, 20 -30 c 0 -10, -10 -20, -20,-10" fill="red" transform="scale(0.6) rotate(180,102,158)"/>
<path d="M60,65 c -10 -10, -20 0, -20 10 c 0 10, 10 20, 20 30 c 10 -10, 20 -20, 20 -30 c 0 -10, -10 -20, -20,-10" fill="red" transform="scale(0.35) translate(-27,5)" />
<path d="M60,65 c -10 -10, -20 0, -20 10 c 0 10, 10 20, 20 30 c 10 -10, 20 -20, 20 -30 c 0 -10, -10 -20, -20,-10" fill="red" transform="scale(0.35) rotate(180,185,240)" />
<text x="112" y="150" fill="red" font-size="20" font-weight="300" transform="rotate(180,112,150)">J</text>
</svg>