<?xml version="1.0" standalone="no"?>
<!DOCTYPE svg PUBLIC "-//W3C//DTD SVG 1.1//EN" "http://www.w3.org/Graphics/SVG/1.1/DTD/svg11.dtd">
<svg width="120" height="170" version="1.1" xmlns="http://www.w3.org/2000/svg">
<rect x="0" y="0" width="120" height="170" rx="10" ry="10" fill="white" stroke="black" />
<!--<image href="./clubk.jpg" x="6" y="7" width="108" height="158"/>-->
<rect x="20" y="16" width="80" height="140" stroke="black" fill="none" />
<text x="5" y="20" fill="black" font-size="20" font-weight="300">K</text>
<path d="M50,70 a 15 15 0 1 1 20 0 a 15 15 0 1 1 -10 15 a 30 30 0 0 0 10 25 l -20 0 a 30 30 0 0 0 10 -25 a 15 15 0 1 1 -10 -15" stroke="black" stroke-width="2" stroke-linejoin="round" fill="black" transform="scale(0.4) translate(25,0)" />
<path d="M50,70 a 15 15 0 1 1 20 0 a 15 15 0 1 1 -10 15 a 30 30 0 0 0 10 25 l -20 0 a 30 30 0 0 0 10 -25 a 15 15 0 1 1 -10 -15" stroke="black" stroke-width="2" stroke-linejoin="round" fill="black" transform="scale(0.4) rotate(180,138,215)" />
<path d="M50,70 a 15 15 0 1 1 20 0 a 15 15 0 1 1 -10 15 a 30 30 0 0 0 10 25 l -20 0 a 30 30 0 0 0 10 -25 a 15 15 0 1 1 -10 -15" stroke="black" stroke-width="2" stroke-linejoin="round" fill="black" transform="scale(0.2) translate(0,70)" />
<path d="M50,70 a 15 15 0 1 1 20 0 a 15 15 0 1 1 -10 15 a 30 30 0 0 0 10 25 l -20 0 a 30 30 0 0 0 10 -25 a 15 15 0 1 1 -10 -15" stroke="black" stroke-width="2" stroke-linejoin="round" fill="black" transform="scale(0.2) rotate(180,300,390)" />
<text x="115" y="150" fill="black" font-size="20" font-weight="300" transform="rotate(180,115,150)">K</text>
</svg>